<?xml version="1.0" encoding="UTF-8" standalone="no"?>
<!DOCTYPE svg PUBLIC "-//W3C//DTD SVG 1.1//EN"
 "http://www.w3.org/Graphics/SVG/1.1/DTD/svg11.dtd">
<!-- Generated by graphviz version 2.40.1 (20161225.0304)
 -->
<!-- Title: pipeline Pages: 1 -->
<svg width="589pt" height="44pt"
 viewBox="0.00 0.00 589.00 44.00" xmlns="http://www.w3.org/2000/svg" xmlns:xlink="http://www.w3.org/1999/xlink">
<g id="graph0" class="graph" transform="scale(1 1) rotate(0) translate(4 40)">
<title>pipeline</title>
<polygon fill="#ffffff" stroke="transparent" points="-4,4 -4,-40 585,-40 585,4 -4,4"/>
<!-- Preprocessing -->
<g id="node1" class="node">
<title>Preprocessing</title>
<polygon fill="none" stroke="#000000" points="92,-36 0,-36 0,0 92,0 92,-36"/>
<text text-anchor="middle" x="46" y="-14.3" font-family="Times,serif" font-size="14.00" fill="#000000">Preprocessing</text>
</g>
<!-- Feature engineering -->
<g id="node2" class="node">
<title>Feature engineering</title>
<polygon fill="none" stroke="#000000" points="253,-36 128,-36 128,0 253,0 253,-36"/>
<text text-anchor="middle" x="190.5" y="-14.3" font-family="Times,serif" font-size="14.00" fill="#000000">Feature engineering</text>
</g>
<!-- Preprocessing&#45;&gt;Feature engineering -->
<g id="edge1" class="edge">
<title>Preprocessing&#45;&gt;Feature engineering</title>
<path fill="none" stroke="#000000" d="M92.118,-18C100.3104,-18 109.021,-18 117.7413,-18"/>
<polygon fill="#000000" stroke="#000000" points="117.9525,-21.5001 127.9524,-18 117.9524,-14.5001 117.9525,-21.5001"/>
</g>
<!-- Modelling -->
<g id="node3" class="node">
<title>Modelling</title>
<polygon fill="none" stroke="#000000" points="363,-36 289,-36 289,0 363,0 363,-36"/>
<text text-anchor="middle" x="326" y="-14.3" font-family="Times,serif" font-size="14.00" fill="#000000">Modelling</text>
</g>
<!-- Feature engineering&#45;&gt;Modelling -->
<g id="edge2" class="edge">
<title>Feature engineering&#45;&gt;Modelling</title>
<path fill="none" stroke="#000000" d="M253.0938,-18C261.6749,-18 270.367,-18 278.6152,-18"/>
<polygon fill="#000000" stroke="#000000" points="278.7836,-21.5001 288.7836,-18 278.7836,-14.5001 278.7836,-21.5001"/>
</g>
<!-- Validation -->
<g id="node4" class="node">
<title>Validation</title>
<polygon fill="none" stroke="#000000" points="473,-36 399,-36 399,0 473,0 473,-36"/>
<text text-anchor="middle" x="436" y="-14.3" font-family="Times,serif" font-size="14.00" fill="#000000">Validation</text>
</g>
<!-- Modelling&#45;&gt;Validation -->
<g id="edge3" class="edge">
<title>Modelling&#45;&gt;Validation</title>
<path fill="none" stroke="#000000" d="M363.241,-18C371.3942,-18 380.1308,-18 388.6203,-18"/>
<polygon fill="#000000" stroke="#000000" points="388.7974,-21.5001 398.7974,-18 388.7973,-14.5001 388.7974,-21.5001"/>
</g>
<!-- Prediction -->
<g id="node5" class="node">
<title>Prediction</title>
<polygon fill="none" stroke="#000000" points="581,-36 509,-36 509,0 581,0 581,-36"/>
<text text-anchor="middle" x="545" y="-14.3" font-family="Times,serif" font-size="14.00" fill="#000000">Prediction</text>
</g>
<!-- Validation&#45;&gt;Prediction -->
<g id="edge4" class="edge">
<title>Validation&#45;&gt;Prediction</title>
<path fill="none" stroke="#000000" d="M473.2068,-18C481.362,-18 490.0936,-18 498.5599,-18"/>
<polygon fill="#000000" stroke="#000000" points="498.6987,-21.5001 508.6987,-18 498.6986,-14.5001 498.6987,-21.5001"/>
</g>
</g>
</svg>
